<?xml version="1.0" encoding="iso-8859-1"?>
<!-- Generator: Adobe Illustrator 19.0.0, SVG Export Plug-In . SVG Version: 6.00 Build 0)  -->
<svg version="1.1" id="Capa_1" xmlns="http://www.w3.org/2000/svg" xmlns:xlink="http://www.w3.org/1999/xlink" x="0px" y="0px"
	 viewBox="0 0 512 512" style="enable-background:new 0 0 512 512;" xml:space="preserve">
<path style="fill:#E6E6E6;" d="M418.487,499.599l53.732-53.732l-84.706-255.961L496.808,85.021
	c19.967-19.162,20.295-50.988,0.726-70.556l0,0c-19.568-19.568-51.395-19.241-70.556,0.726L322.092,124.487L66.131,39.78
	L12.4,93.512l213.352,131.365L117.796,337.371l-69.231-11.366L0,374.57l101.78,35.649l35.649,101.78l48.565-48.565l-11.366-69.231
	l112.494-107.955L418.487,499.599z"/>
<path style="fill:#CCCCCC;" d="M418.487,499.599l53.732-53.732l-84.706-255.961L496.808,85.021
	c19.967-19.162,20.295-50.988,0.726-70.556l0,0L101.78,410.219l35.649,101.78l48.565-48.565l-11.366-69.231l112.494-107.955
	L418.487,499.599z"/>
<g>
</g>
<g>
</g>
<g>
</g>
<g>
</g>
<g>
</g>
<g>
</g>
<g>
</g>
<g>
</g>
<g>
</g>
<g>
</g>
<g>
</g>
<g>
</g>
<g>
</g>
<g>
</g>
<g>
</g>
</svg>
